<svg 
  xmlns="http://www.w3.org/2000/svg"
  viewBox="0 0 100 32"
  width="400"
  height="128"
  fill="none"
>
  <path 
    d="M71.408 32h5.417l8.716-19.673L94.194 32h5.417L85.54 0 71.408 32ZM67.673 0h-5.665v31.938h5.665V0ZM28.203 32h5.416l8.654-19.673L50.926 32h5.479L42.273 0l-14.07 32ZM17.992 20.918h2.802v4.918c-1.557.748-3.175.934-4.856.934-2.926 0-5.666-.996-7.72-3.05-2.055-2.055-3.175-4.856-3.175-7.782 0-2.927 1.12-5.666 3.175-7.72 2.054-2.055 5.043-3.113 7.595-3.113 1.183 0 2.366.124 3.487.436L21.292.934C19.549.31 17.868.062 15.938.062c-2.117 0-4.234.436-6.164 1.245-1.992.81-3.61 1.992-5.105 3.424-1.432 1.495-2.615 3.175-3.424 5.105A16.029 16.029 0 0 0 0 16c0 2.179.436 4.233 1.245 6.163.81 1.93 1.992 3.611 3.424 5.043s3.113 2.615 5.043 3.424a16.03 16.03 0 0 0 6.164 1.245c2.49 0 4.918-.56 7.097-1.68.622-.25 1.183-.623 1.68-.934l1.184-.747v-12.14h-5.853l-1.992 4.544Z" 
    fill="#000000"
  />
</svg>
