<?xml version="1.0" encoding="UTF-8" standalone="no"?>
<!DOCTYPE svg PUBLIC "-//W3C//DTD SVG 1.1//EN" "http://www.w3.org/Graphics/SVG/1.1/DTD/svg11.dtd">
<svg width="100%" height="100%" viewBox="0 0 2000 2000" version="1.1" xmlns="http://www.w3.org/2000/svg" xmlns:xlink="http://www.w3.org/1999/xlink" xml:space="preserve" xmlns:serif="http://www.serif.com/" style="fill-rule:evenodd;clip-rule:evenodd;stroke-linejoin:round;stroke-miterlimit:2;">
    <g transform="matrix(3.560913,0,0,3.560913,272.719211,-67.45668)">
        <path d="M121.32,99.68C118.34,100.26 112.86,100.72 110.37,101.88L110.2,101.47C110.38,97.81 114.95,84.98 117.04,81.77C118.55,79.45 136.01,69.59 138.94,69.36C143.01,69.04 160.96,73.44 166.83,74.28C175.77,75.56 186.59,74.71 195.76,74.67C203.37,74.63 211.2,75.07 218.78,74.6C220.23,74.51 221.62,74.25 223.04,73.92C223.86,73.73 224.43,73.8 224.89,73.06C223.98,71.71 216.28,66.25 214.44,65.99C199.61,63.94 184.14,63.6 169.16,62.53C166.79,62.36 162.2,63.7 161.73,61.74C162.62,59.76 186.89,43.54 190.18,40.37C191.04,39.53 193.84,38.91 195.23,38.82C207.803,37.94 220.393,37.433 233,37.3C244.38,37.08 247.73,35.52 257.31,42.55C260.4,44.89 268.78,47.81 271.33,50.43C278.24,57.53 284.83,67.34 290.55,75.35C299.95,88.52 310.65,100.39 319.85,113.62C320.84,115.05 322.11,119.15 322.66,119.63L323.07,119.54C324,118.11 324.47,117.06 325.21,115.54C323.14,108.17 316.04,92.12 312.73,85.22C304.09,83.95 302,83.87 297.65,76.24C296.94,74.99 295.27,73.01 295.58,71.53C295.7,71.49 295.823,71.45 295.95,71.41C298.34,70.7 317.6,74.95 319.98,76.53C321.5,77.53 334.71,110.87 335.41,114.8C335.62,115.97 335.91,117.51 335.65,118.67C334.26,125.05 328.75,131.12 325.17,136.44C323.34,139.17 321.67,142.04 319.74,144.7C319.51,145.02 318.7,146.09 318.31,146.2C315.66,146.93 299.67,141.28 295.18,140.5C290.73,139.73 277.21,139.13 272.96,139.9C271.14,140.23 269.54,141.01 268.02,142.05C263.91,144.85 260.05,148.06 256.02,150.98C248.65,156.31 241.09,161.39 233.81,166.84C230.05,169.66 226.53,172.77 222.71,175.52C216.95,179.67 205.85,185.57 201.47,190.28C197.32,194.73 191.83,208.01 187.45,214.3C185.14,214.82 182.45,215.1 180.08,215.41C179.22,218.24 172.93,238.49 171.2,239.6C163.85,244.33 160.38,251.74 154.4,256.67C149.57,257.5 138.74,257.23 133.37,257.08C129.54,256.98 126.13,254.3 123.82,251.2L124.13,243.72C124.58,234.51 125.9,233.69 131.91,226.94C134.06,224.53 134.77,223.21 137.45,220.78C133.76,221.43 129.35,221.73 125.44,222.33C121.65,227.37 97.38,256.99 96.91,259.23C96.32,262.04 97.36,265.73 97.49,268.64C97.64,271.82 97.57,275.03 97.55,278.22L97.33,278.79L96.95,278.68L96.89,278.53C96.41,282.69 95.83,300.7 96.32,304.66C96.387,309.1 96.543,313.537 96.79,317.97L97.15,315.99L97.44,319.55C97.24,320.29 97.21,328.58 97.32,329.59C95.08,331.41 97.07,351.74 96.7,356.05C96.49,358.71 96.16,366.51 96.61,368.94C97.31,370.56 102.97,375.56 104.59,377.04C104.35,366.05 106.93,354.36 107.27,343.28C107.35,340.36 107.59,337.59 108.08,334.7L108.43,335.08C111.28,338.21 114.61,343.07 117.13,346.59C120.75,351.69 124.447,356.733 128.22,361.72C135.86,371.88 138.05,372.95 148.41,379.98C157.177,386 166.07,391.83 175.09,397.47C178.73,399.76 184.38,402.9 187.47,405.56C188.92,406.82 193.22,415 194.46,417.09C201.573,428.943 208.783,440.74 216.09,452.48C218.17,455.87 222.71,464.13 225.08,466.64L225.41,466.43C225.41,466.54 233.18,438.23 233.81,434.88C227.47,427.55 220.3,421.48 214.76,413.46C213.89,412.2 212.17,410.78 211.15,409.57C208.49,407.18 206.44,403.98 204.02,401.44C200.28,397.5 193.11,391.86 190.79,386.67C187.4,379.1 185.58,369.45 182.11,361.5C179.87,356.37 177.42,351.32 175.37,346.35C175.16,350.02 174.4,355.26 175.02,358.5C171.65,359.74 168.38,361.97 165.48,362.95C158.18,358.69 151.04,354.17 143.8,349.79C140.03,347.51 134.77,345.17 131.62,342.1C131.13,341.63 104.93,298.05 104.78,297.59C105,294.89 106.9,288.55 107.7,285.45C109.08,280.07 110.23,273.61 111.8,268.39C119.95,267.23 137.06,266.63 145.28,268.21C147.28,268.59 158.93,274.62 161.82,275.87C166.49,275.4 173.2,274.8 177.75,274.78C179.09,274.78 188.53,283.81 190.35,285.36L234.47,322.57L257.4,342.1C260.96,345.08 269.02,351.35 271.96,354.34L272.15,354.92C274.73,363.07 273.69,375.58 273.85,384.07C274.28,391.04 276.57,397.47 274.87,404.47C274.73,405.05 274.59,406.87 275.41,407.01C299.13,411.11 325.76,416.96 349.61,418.72C354.27,411.95 364.71,407.12 362.48,398.41C361.4,394.23 360.25,389.75 358.86,385.66C357.32,385.62 355.95,385.6 354.41,385.69C352.06,385.82 347.19,387.45 345.39,386.02C345.33,382.07 355.7,379.76 355.84,375.41C354.13,372.62 346.41,372.34 344.98,368.45C349.95,363.77 374.39,375.07 366.61,358.96C364.27,358.43 356.47,357.25 354.48,357.8C343.75,360.75 334.21,367.56 322.69,367.51C321.03,367.5 319.09,368.08 317.65,366.91C317.08,364.96 318.64,363.56 319.95,362.19C332.38,359.56 340.28,350.86 350.59,343.91C353.68,341.83 356.09,339.53 359.68,338.09L360.05,338.25C362.34,339.26 365.47,341.66 367.46,341.44C368.81,338.37 360.1,326.31 361.53,322.04C361.91,320.94 367.35,319.03 368.22,317.47C374.35,312.05 380.74,306.3 386.51,300.52C377.25,288.27 367.66,276.67 359.7,263.44C357.92,260.48 355.01,257.21 353.86,254.03C354.95,249.17 359.22,232.97 358.7,228.95L358.4,228.65C351.55,232.45 350.39,245.55 349.44,252.46C355.21,262.27 360.1,274.73 365.75,284.82C369.39,291.3 376.02,295.33 378.63,302.51C378.49,303.08 377.87,305.48 377.53,305.92C373.15,311.68 367.47,316.48 361.32,320.55C355.03,324.7 341.2,324.71 337.05,317.19C335.74,314.83 339.27,306.36 341.43,304.21L342.24,303.95C343.96,305.65 343,311.4 342.58,313.76C344.5,316.76 344.94,317.01 348.1,318.69C352.72,315.07 365.27,306.6 368.06,302.77C365.48,299.57 359.54,293.57 357.58,290.37C353.27,283.05 350.28,275.13 346.25,267.62C343.85,262.61 340.24,258.13 338.04,253.05C337.65,250.34 340.09,246.09 340.58,243.65C342.27,235.27 344.6,227.83 349.84,220.93C352.78,217.06 357.41,214.06 361.02,210.66C352.68,191.29 342.9,172.62 333.87,153.58C333.22,152.2 331.75,149.89 331.03,148.7C327.56,142.96 325.98,142.49 331.07,137.11C331.74,136.41 333.04,134.68 333.74,133.74C336.29,137.36 338.59,141.29 340.9,145.07C352.82,164.54 364.04,184.38 375.88,203.9C372.89,213.21 370.47,225.58 368.72,235.32C368.29,237.71 367.39,240.45 367.06,242.6C369.55,241.38 372.38,239.78 375.14,239.63L375.73,239.96C376.56,244.65 365.72,249.27 362.86,251.09C364.78,255.34 369.91,261.61 372.89,265.52C377.65,271.847 382.487,278.113 387.4,284.32C390.87,288.73 395.35,294.17 398.48,298.76C396.59,301.85 387.71,310.23 384.65,313.22C380.11,317.65 376.23,321.76 371.89,326.44C374.35,331.88 377.56,336.82 380.05,342.08C379.07,346.11 376.77,349.58 374.69,353.18C376.41,356.85 378.67,361.07 380.22,364.63C378.41,367.59 374.85,374.41 371.38,375.57C371.06,375.68 369.49,375.86 369.06,375.91L368.62,375.97L368.36,376C367.45,386.69 372.35,391.44 373.45,401.47C373.62,402.98 372.69,408.56 372.36,410.31C372.09,410.57 364.07,419.39 364.1,419.34C363.94,419.447 363.82,419.583 363.74,419.75C360.36,422.49 357.06,426.81 353.86,429.6C347.55,428.45 340.99,428.07 334.67,427.06C318.14,424.4 301.29,422.4 284.86,419.23C271.65,416.69 266.26,416.13 254.51,424.12C244,431.27 242.34,440.71 240.05,452.4C246.02,455.33 252.28,459.29 258.67,462.48C268.443,467.253 278.243,471.97 288.07,476.63C289.68,477.39 300.56,482.29 300.75,482.69C305.33,492.31 308.7,503.09 312.26,513.25C315.22,521.72 318.29,530.58 321.43,539.03C321.457,539.137 321.483,539.243 321.51,539.35C316,536.61 310.07,530.94 304.95,527.24C291.737,517.693 278.58,508.07 265.48,498.37C264.37,497.54 258.96,493.82 258.55,493.09C254.91,486.73 251.96,479.15 249.14,472.41C246.91,467.1 243.42,461.59 241.09,456.5C237.29,460.21 238.75,459.7 237.34,464.26C235.78,469.26 235.08,476.4 233.16,481.01C236.27,486.23 242.48,495.65 245.07,500.63C250.73,509.24 256.08,518.85 261.45,527.69C268.34,539.04 275.24,550.34 281.67,561.96C273.74,562.39 263.43,562.05 255.24,562.05L225.27,562.29C213.47,562.29 200.19,562.09 188.47,562.54C186.71,560.7 185.47,558.87 183.89,556.91C182.4,554.77 179.54,552.46 178.19,550.36C174.8,545.1 170.94,540.76 167,535.97C164.35,532.77 161.94,529.01 159.38,525.69C147.447,510.27 135.18,495.117 122.58,480.23C119.23,476.23 119.37,472.5 117.63,467.9C112.27,453.67 106.79,439.45 101.39,425.23C100.69,423.39 101.34,418.01 101.53,415.85C99.22,413.26 87.2,401.68 84.86,400.97C83.24,402.48 84.55,405.39 83.95,407.05C80.17,417.45 82.02,429.13 78.53,439.78C78.22,440.73 78.13,443.61 78.06,444.71C80.16,448.6 83.79,451.44 85.77,455.26C87.68,458.91 87.3,481.64 87.39,487.66C87.43,490.85 87.7,498.19 86.99,500.89C86.46,501.09 86.68,501 85.95,500.83C81.45,495.83 77.84,492.76 73.37,488.19C69.63,484.23 66.25,478.32 62.23,474.66C55.57,469.1 50.98,461.8 44.87,455.95C40.63,451.9 37.94,448.33 34.11,443.94C28.02,436.96 12.86,423.15 10,414.3C11.68,405.13 11.93,395.35 13.38,385.98C15.04,375.27 26.06,365.72 32.12,357.1C35.01,352.99 39.23,348.25 41.63,344.11C47.15,334.63 54.4,327.18 60.78,318.44C64.267,313.68 67.687,308.87 71.04,304.01C72.69,301.57 76,296.13 77.78,294.3L78.46,294.32L79,294.93C81.8,314.75 84.14,334.627 86.02,354.56C86.64,360.62 88.15,368.71 88.05,374.73C87.98,379.08 85.67,385.4 84.98,390.42C88.62,393.64 92.03,396.21 95.77,399.25C97.45,400.61 99.63,402.86 101.46,404.46C101.45,401.81 102.65,398.49 103.11,395.74C103.65,392.51 103.85,389.56 104.09,386.29C99.28,381.49 93.22,377.94 89.57,373.87C87.74,365.85 89.15,353.47 89.08,345.08C89.05,341.5 87.98,337.37 88.11,334C88.29,329.53 89.12,325.1 89.17,320.54C89.4,302.31 88.51,283.16 89.47,265.01C85.16,264.99 69.92,266.75 65.34,267.92C63.09,268.5 58.33,275.38 55.99,277.39C48.98,283.44 41.53,289.06 34.95,295.68C32.78,297.86 30.52,302.24 27.38,303.16C26.25,302.83 26.7,303.14 25.98,302.18C25.66,295.85 26.49,289.8 26.91,283.48C27.19,279.33 26.06,268.87 26.74,265.68C28.58,257.12 32.15,247.14 34.65,238.5C38.28,226.45 41.58,214.29 45.12,202.22C45.61,200.54 47.96,195.3 49.44,194.32C52.95,191.99 57.95,186.54 61.4,184.85C65.07,183.05 72.06,182.61 76.09,181.3C80.99,180.13 85.78,178.89 90.57,177.68C89.9,181.79 89.11,184.82 88.01,188.8C81.19,191.29 72.7,191.26 66.22,194.27C64.4,195.11 56.57,202.4 55.61,204.18C53.2,208.66 51.51,216.28 50.13,221.43C58.83,220.18 69.75,220.28 78.25,218.59C83.32,214.09 87.5,210.74 91.78,205.21C93.58,202.88 97.93,200.12 99.81,197.63C103.56,192.68 106.99,188.78 111.54,184.54C117.55,184.58 123.12,183.77 129,183.67C140.32,183.48 151.71,183.84 163.03,183.77C165.01,183.76 169.49,184.19 170.45,182.19L170.08,181.69C167.06,180.05 159.56,178.43 155.53,176.57C150.16,174.77 142.26,168.82 137.13,167.54C116.69,162.43 94.9,161.34 74.12,158.72C74.71,154.37 75.53,129.91 77.28,128.04C79.33,125.84 83.32,124.54 85.94,123.05C89.97,120.76 93.89,117.63 98.15,115.81C101.96,114.18 117.13,114.24 122.24,113.94L121.85,113.87C124.78,113.57 139.67,114.24 140.89,112.92C140.41,111.46 123.78,101.14 121.32,99.68ZM264.86,404.89C264.98,400.8 263.73,397.63 263.81,394.03C264.01,385.69 263.57,377.93 262.72,369.68C262.48,367.37 263.02,362.36 263.03,359.59C258.04,355.17 252.61,351.57 247.74,347.31C234.82,336.01 222.03,324.67 208.75,313.82C200.52,307.1 192.37,298.78 183.66,292.64C181.78,292.12 178.11,288.63 175.8,287.08C175.81,293.27 176.11,314.71 175.18,319.43C175.2,322.42 195.03,364.19 198.13,368.33C199.44,370.09 242.9,400.1 245.39,401.16C250.56,403.38 259.16,404.14 264.86,404.89ZM86.14,134.51C85.45,139.7 85.12,145.08 84.4,150.17C98.18,151.22 111.52,152.63 125.11,155.32C128.71,156.03 136.34,156.84 139.44,158.29C150.84,163.6 159.37,168.63 171.75,171.85C180.12,174.18 191.07,176.69 199,179.56C202.07,177.25 213.39,170.08 214.59,167.43C213.01,165.19 197.83,154.27 194.22,151.34L170.53,132.13C167.83,129.98 162.54,125.51 159.89,123.83C152.5,123.81 142.62,123.73 135.24,123.96L115.75,124.54C111.82,124.67 105.27,124.2 101.82,125.57C96.66,127.62 90.9,131.57 86.14,134.51ZM116.2,194.48C114.46,196.92 112.61,198.92 110.52,201.04C101.77,209.89 93.15,219.19 84.16,227.78C76.65,229.51 54.79,231.35 47.03,231.26C45.123,238.24 43.093,245.183 40.94,252.09C37.03,264.83 35.92,266.45 36.85,280.07C39.52,277.97 41.67,275.85 44.1,273.5C46.56,271.05 48.17,268.71 50.5,266.33C60.29,256.35 64.28,257.64 77.03,256.24C79.88,255.93 84.87,255.57 87.45,254.45C95.94,244.76 103.22,233.27 111.86,223.56C114.77,220.29 117.44,215.77 120.68,212.89C132.26,210.77 144.69,210.25 156.34,208.37C162.73,207.34 176.27,207.13 181.63,204.82C183.63,200.65 185.27,197.26 187.49,193.24C182.95,193.18 178.54,193.11 174,193.32C159.96,193.773 145.923,194.127 131.89,194.38C126.7,194.48 121.34,194.22 116.2,194.48ZM113.95,386.08C121.31,393.78 128.96,400.33 137.22,406.98C139.74,409.02 142.04,412.75 144.42,415.02C150.56,421.35 157.02,427.27 163.39,433.37C167.63,437.43 171.76,438.64 176.11,442.2C177.46,443.29 180.07,447.41 180.48,449.14C180.65,450.88 178.55,453.53 177.6,455.07C181.67,459.38 203.59,480.27 207.59,482.33C210.17,483.67 211.85,487.18 213.86,489.24C219.91,495.46 226.54,501.1 232.61,507.34C234.55,507.9 235.5,506.59 236.97,505.37C229.98,494.3 223.25,483.11 216.56,471.85C215.24,469.45 212.97,467.44 211.64,465.07C205.45,454.07 199.08,442.79 192.06,432.33C190.17,429.52 181.53,413.19 180.13,412.31C163.48,401.89 147.45,390.7 130.89,380.12C125.87,376.91 119.85,366.28 116.24,364.69C116.26,366.33 116.36,371.16 116.1,372.55C115.15,377.77 114.26,380.69 113.95,386.08ZM111.32,423.11C114.62,427.6 120.52,431.83 124.69,435.67C137.33,447.297 150.08,458.797 162.94,470.17C165.58,472.51 169.01,474.97 171.37,477.12L253.69,552.05C256.4,552.12 261.48,552.46 263.89,551.87L264.29,551.4C264.09,550.92 263.95,550.49 263.66,550.1C261.54,546.37 257.61,540.38 255.15,536.92C252.49,533.17 243.49,513.77 241,511.93C237.68,511.11 235.14,516 231.24,515.42C228.77,514.04 227.25,511.09 225.12,509.46C217.61,503.75 211.14,497.12 204.71,490.27C203.97,489.49 202.33,488.41 201.29,487.68C192.21,481.19 186.43,471.69 176.82,465.48C176.03,464.97 173.85,461.66 172.22,460.33C167.11,459.96 163.05,459.78 159.5,455.44C155.31,450.34 157.25,445.64 160.55,441.11C156.59,435.51 153.63,434.59 149.18,430.35L124.95,407.63C122.99,405.77 120.79,403.01 118.75,400.94C116.22,398.37 115.41,398.25 112.93,396.23C114.79,400.17 112.18,404.42 112.64,407.86C113.37,413.26 111.29,418.47 111.32,423.11ZM20.03,413.27C21.46,415.11 23.99,417.52 25.14,419.17C27.68,422.82 33.15,426.25 35.5,429.4C40.61,436.3 46.4,442.31 52.02,448.66C51.75,447.24 51.57,445.86 51.44,444.45C51.24,443.09 52.37,435.13 51.83,434.47C48.07,429.82 45.01,431.56 44.49,424.36C43.96,416.99 50.9,415.92 52.53,412.28C53.35,406.32 52.57,393.81 52.59,387.29L52.65,370.46C52.67,367.57 53.29,361.2 51.57,359.14L51.27,348.57C49.33,352.56 45.1,355.82 42.65,359.62C37.66,367.36 27.69,378.13 23.9,385.87C23.07,387.57 20.36,409.94 20.03,413.27ZM71.57,322.29C68.93,323.83 61.03,334.45 59.34,337.38C59.44,362.64 59.25,388.26 59.6,413.48C64.6,416.11 70.71,423.4 66.34,429.45C65.86,430.12 59.89,434.59 59.93,434.41C59.49,436.43 59.33,455.3 59.39,457.07C63.67,461.7 67.64,465.78 71.84,470.57C73.51,472.47 74.91,473.98 76.7,475.76C76.78,470.227 76.897,464.697 77.05,459.17L67.54,447.33C68.5,438.44 69.23,428.84 70.71,420.05C72.26,410.87 73.5,401.84 74.52,392.59C76.74,379.58 78.32,370.52 75.67,357.31C74.07,349.36 73.7,339.59 72.59,331.46C72.35,328.62 71.72,324.97 71.57,322.29ZM148.04,104.93C148.98,105.67 153.97,108.58 155.45,109.5C160.02,112.33 164.72,115.52 169.36,118.16C173.65,113.75 177.92,104.7 182.34,100C183.18,99.11 184.22,98.36 184.31,97.18C182.17,96.51 163.65,96.7 160.49,96.85C157.49,102.18 154.15,103.95 148.07,103.21C145.85,102.37 144,100.71 141.65,99.52C139.95,97.14 139.3,94.54 139.83,91.64C140.41,88.55 142.23,85.82 144.87,84.1C151.33,79.94 156.77,84.04 160.52,89.39C175.46,89.45 188.54,89.66 203.6,89.27C199.91,94.31 195.79,98.86 192.3,104.08C187.56,111.14 182.03,117.99 177.29,125.01C181.02,128.19 186.89,133.19 190.8,136.01C190.55,132.27 186.2,124.15 188.89,121.7C195.51,115.68 205.3,105.51 213.02,101.51C217.44,102.82 225.5,108.16 229.97,110.51C242.25,116.98 255.89,125.77 268.41,131.36C273.08,129.38 274.01,129.26 279.18,129.49L286.63,129.13C280.61,123.14 246.24,89.93 244.96,86.56C242.73,84.28 240.1,84.58 236.96,84.56C213.08,84.39 188.89,84.8 165.04,84.32C159.45,84.21 146.94,80.52 140.76,79.18C135.46,80.99 127.25,85.7 123.68,89.89C126.08,91.79 137.47,98.83 140.12,99.49C142.02,101.32 145.68,103.48 148.04,104.93ZM262.2,475.93C263.04,478.02 266.38,486.14 267.77,487.28C275.94,493.93 291.74,506.61 300.29,511.62L300.56,511.56C300.67,508.16 295.09,493.36 293.49,489.68C289.48,487.44 284.06,484.88 279.8,483.03C274.85,480.87 267.28,476.36 262.2,475.93ZM165.15,217.48C160.86,218.15 156.42,218.58 152.09,219.06C150.76,220.47 149.43,221.94 148.28,223.51C144.29,228.96 138.57,233.35 135.05,239.07C134.36,240.2 134.01,245.22 133.86,246.82L137.93,246.79C141.81,246.817 145.687,246.887 149.56,247C154.03,242.46 160.33,236.64 164.28,231.94C165.12,225.85 167.96,221.86 168.74,217.33L165.15,217.48ZM213.31,112.61C210.2,115.26 202.89,124.02 199.9,125.14C199.19,126.71 205.02,146.83 207.63,148.97C212.42,152.92 218.68,158.48 223.94,161.68C227.11,159.5 232.71,155.15 235.51,153.47C241.23,149.28 252.28,140.79 257.95,137.62C255.03,135.39 216.08,113.21 213.31,112.61ZM196.05,48.73C194.47,49.72 191.95,51.05 191.25,52.71C191.58,53.33 191.57,53.59 192.52,53.74C199.28,54.8 209.83,54.21 216.27,55.85C219.22,56.61 229.26,63.53 232.23,65.71C238.25,70.12 249.36,76.16 254.39,81.03C263.13,89.46 271.86,98.75 280.59,107.23C282.2,108.8 287.7,114.67 288.94,115.53C292.83,119.36 299.52,126.41 301.5,131.35C305.03,133.1 310.04,134.34 313.92,135.48C314.82,133.28 315.46,131.85 315.98,129.52C312.71,119.46 303.68,108.43 297.34,99.93C296.49,98.78 294.44,97.72 293.95,96.94C287.99,87.5 281.77,79.07 274.15,70.87C271.61,68.13 269.49,61.82 266.35,59.09C261.72,55.41 253.73,51.71 248.52,48.66C244.41,46.25 240.76,46.89 236.24,47.13C222.853,47.83 209.457,48.363 196.05,48.73ZM235.93,551.29L236.56,550.72C236.29,549.55 236.4,549.98 235.58,549.09C233.79,547.14 230.21,545.16 228.55,543.28C224.37,538.45 220.08,534.63 214.96,530.79C213.27,529.53 211.27,526.83 209.53,525.3C202.04,518.7 194.41,512.24 187.35,505.17C185.6,503.42 182.54,502 180.67,500.24C175.97,495.13 171.73,490.79 166.12,486.65C163.66,484.83 161.1,481.05 158.48,479.14C152.34,474.04 146.52,469.85 141.32,463.63C139.72,461.73 135.02,459.16 132.93,457.18C128.95,453.42 127.47,449.38 121.86,447.92C121.51,452.97 128.66,468.18 130.85,473.56C131.57,475.35 137.75,482.62 139.46,484.74L152.1,500.61L178.38,533.89C182.11,538.61 187.02,545.3 190.76,549.62C191.5,550.467 192.287,551.267 193.12,552.02C205.81,552.14 218.77,552.5 231.45,551.79C232.94,551.71 234.42,551.36 235.93,551.29ZM115.4,295.97C119.03,304.35 134.6,328.39 140.49,335.91C141.82,337.62 161.02,348.97 164.16,350.73C163.86,347.57 163.76,332.81 164.09,329.57C164.14,319.18 163.29,303.95 164.14,294.07C164.05,293.17 164.58,287.36 164.68,286.01C155.46,285.15 149.92,279.53 141.19,277.63C137.96,276.93 131.73,277.67 128.29,277.56C126.26,277.5 121.8,276.89 120.57,278.32C117.11,282.32 117.42,290.87 115.4,295.97Z" style="fill-rule:nonzero;"/>
    </g>
    <g transform="matrix(3.560913,0,0,3.560913,272.719211,-67.45668)">
        <path d="M134.55,285.67C145.34,284.34 145.68,290.39 151.12,296.56C156.1,302.22 163.58,306.04 158.99,315.44C157.25,319.03 154.61,320.36 151.12,321.43C149.04,321.52 145.95,321.86 144.09,320.88C140.07,318.78 137.78,314.88 135,311.44C130.07,305.32 121.92,299.6 127.38,290.98C129.35,287.88 131.04,286.63 134.55,285.67Z" style="fill-rule:nonzero;"/>
    </g>
    <g transform="matrix(3.560913,0,0,3.560913,272.719211,-67.45668)">
        <path d="M136.17,292.62C138.49,292.47 141.24,294.74 142.25,296.57C145.27,302.04 157.09,308.5 149.71,314.06C146.14,314.26 140.39,306.23 138.14,303.44C134.48,298.89 131.4,297.03 136.17,292.62Z" style="fill:rgb(251,251,251);fill-rule:nonzero;"/>
    </g>
    <g transform="matrix(3.560913,0,0,3.560913,272.719211,-67.45668)">
        <path d="M167.53,445.18C169.72,444.62 171.97,445.93 172.56,448.12C173.16,450.3 171.89,452.57 169.71,453.2C168.27,453.61 166.71,453.22 165.64,452.17C164.57,451.12 164.15,449.57 164.54,448.13C164.93,446.68 166.07,445.55 167.53,445.18Z" style="fill:rgb(251,251,251);fill-rule:nonzero;"/>
    </g>
    <g transform="matrix(3.560913,0,0,3.560913,272.719211,-67.45668)">
        <path d="M54.53,419.9C55.89,419.31 57.46,419.5 58.64,420.4C59.81,421.3 60.41,422.76 60.2,424.22C60,425.69 59.01,426.92 57.63,427.45C55.56,428.25 53.23,427.25 52.39,425.2C51.54,423.14 52.5,420.79 54.53,419.9Z" style="fill:rgb(251,251,251);fill-rule:nonzero;"/>
    </g>
    <g transform="matrix(3.560913,0,0,3.560913,272.719211,-67.45668)">
        <path d="M149.42,89.78C150.69,89.27 152.14,89.49 153.2,90.36C154.25,91.24 154.74,92.62 154.47,93.97C154.2,95.31 153.22,96.4 151.91,96.8C150,97.38 147.98,96.36 147.31,94.48C146.64,92.6 147.57,90.53 149.42,89.78Z" style="fill:rgb(251,251,251);fill-rule:nonzero;"/>
    </g>
    <g transform="matrix(3.560913,0,0,3.560913,272.719211,-67.45668)">
        <path d="M378.31,423.78C378.41,423.84 378.507,423.907 378.6,423.98C379.69,424.99 392.08,457.09 392.63,459.96C393.33,463.67 393.11,467.52 393.26,471.28C393.43,475.48 393.76,479.62 393.72,483.84C389.2,490.027 384.907,496.367 380.84,502.86C377.16,508.73 372.79,516.67 368.22,521.59C366.15,520.63 362.39,517.63 360.3,516.12C356.57,513.43 349.95,509.73 347.99,505.65C345.02,497.15 334.53,478.6 329.56,470.62C328.69,469.22 317.59,458.6 315.21,456.13C319.46,446.9 321.19,448.45 330.68,448.44C338.99,448.42 347.3,448.6 355.63,448.52C360.51,448.47 362.77,443.25 365.58,439.99C369.68,434.8 373.67,428.91 378.1,424.01L378.31,423.78ZM363.53,458.42C354.46,458.77 341.99,458.03 333.47,458.76C340.04,468.56 349.11,483.83 354.02,494.56C357.79,502.21 358.93,502.76 366.08,507.19C371.5,498.25 378.49,489.52 382.88,480.17C383.22,479.46 383.37,462.99 382.94,461.64C381.37,456.65 378.05,448.29 375.63,443.5C371.51,448.16 367.59,454.04 363.53,458.42Z" style="fill-rule:nonzero;"/>
    </g>
    <g transform="matrix(3.560913,0,0,3.560913,272.719211,-67.45668)">
        <path d="M277.3,219.63C278.427,219.55 279.55,219.5 280.67,219.48C283.28,219.46 328.31,224.88 328.52,225C328.66,225.08 328.76,225.23 328.88,225.35C329.49,229.96 323.33,243.82 319.93,247.16C318.81,247.52 310.88,247.05 309.23,246.98C309.38,255.83 308.27,258.69 314.12,265.08C313.46,267.88 309.71,277.82 306.06,277.12C304.75,274.95 307.21,270.15 308.18,268.05C300.1,266.89 294.04,267.03 285.57,264.82C278.33,262.93 271.07,259.41 264.32,257.64L263.86,257.52C261.05,257.46 259,258.47 256.52,257.03C255.79,255.97 255.98,256.53 255.89,255.29C256.28,254.54 257.02,253.95 257.81,253.67C271.58,248.71 283.33,239.14 297.93,236.57C299.25,236.34 301.41,236.03 302.61,235.62L302.84,235C302.03,233.57 282.23,228.27 279.46,228.42C270.19,228.94 260.07,234.97 251.5,238.45C249.53,239.24 245.62,242.04 244.02,240.28C244.22,238.54 249.41,234.25 250.75,233.68C256.86,231.11 271.66,220.57 277.3,219.63Z" style="fill-rule:nonzero;"/>
    </g>
    <g transform="matrix(3.560913,0,0,3.560913,272.719211,-67.45668)">
        <path d="M302.51,248.68C303.76,249.88 304.2,259.63 304.31,261.86C296.81,261.5 291.53,260.77 284.31,258.69C281.61,257.79 280.33,257.3 277.87,255.92C285.2,253.39 294.9,250.87 302.51,248.68Z" style="fill:rgb(251,251,251);fill-rule:nonzero;"/>
    </g>
</svg>
