<svg version="1.2" xmlns="http://www.w3.org/2000/svg" viewBox="0 0 1088 960" width="1088" height="960"><style>.a{fill:#fbfbfb}</style><path  d="m439.6 176c-4.5 0.8-12.6 1.5-16.4 3.3l-0.2-0.7c0.3-5.4 7.1-24.6 10.2-29.4 2.3-3.5 28.3-18.2 32.7-18.5 6.1-0.5 32.9 6.1 41.7 7.3 13.3 1.9 29.5 0.7 43.2 0.6 11.4-0.1 23 0.6 34.4-0.1 2.1-0.1 4.2-0.5 6.3-1 1.3-0.3 2.1-0.2 2.8-1.3-1.4-2-12.9-10.2-15.6-10.6-22.2-3-45.3-3.5-67.7-5.1-3.5-0.3-10.4 1.7-11-1.2 1.3-3 37.5-27.2 42.4-31.9 1.3-1.3 5.5-2.2 7.6-2.3q28.2-2 56.4-2.3c17-0.3 22-2.7 36.3 7.8 4.6 3.5 17.2 7.9 21 11.8 10.3 10.6 20.1 25.3 28.7 37.2 14 19.7 30 37.4 43.7 57.2 1.5 2.1 3.4 8.2 4.2 9l0.6-0.2c1.4-2.1 2.1-3.7 3.2-5.9-3-11.1-13.6-35-18.6-45.3-12.9-1.9-16-2.1-22.5-13.5-1.1-1.8-3.6-4.8-3.1-7q0.3-0.1 0.5-0.2c3.6-1 32.4 5.3 35.9 7.7 2.3 1.5 22 51.3 23.1 57.1 0.3 1.8 0.7 4.1 0.3 5.8-2 9.6-10.3 18.6-15.6 26.6-2.7 4-5.2 8.3-8.1 12.3-0.4 0.5-1.6 2.1-2.2 2.2-3.9 1.1-27.8-7.3-34.5-8.5-6.7-1.1-26.9-2-33.2-0.9-2.7 0.5-5.1 1.7-7.4 3.2-6.1 4.2-11.9 9-17.9 13.4-11 7.9-22.3 15.5-33.2 23.7-5.6 4.2-10.9 8.8-16.6 12.9-8.6 6.2-25.1 15-31.7 22.1-6.2 6.6-14.4 26.5-20.9 35.9-3.5 0.7-7.5 1.2-11 1.6-1.3 4.2-10.7 34.5-13.3 36.2-11 7-16.2 18.1-25.1 25.4-7.2 1.3-23.4 0.9-31.4 0.7-5.7-0.2-10.8-4.2-14.3-8.8l0.5-11.2c0.7-13.7 2.6-15 11.6-25.1 3.2-3.5 4.3-5.5 8.3-9.1-5.5 0.9-12.1 1.4-18 2.3-5.6 7.5-41.9 51.7-42.6 55.1-0.9 4.2 0.7 9.7 0.9 14 0.2 4.8 0.1 9.6 0.1 14.3l-0.3 0.9-0.6-0.2-0.1-0.2c-0.7 6.2-1.6 33.1-0.9 39q0.2 10 0.8 19.9l0.5-2.9 0.4 5.3c-0.3 1.1-0.3 13.5-0.2 15-3.3 2.7-0.3 33.1-0.9 39.5-0.3 4-0.8 15.6-0.1 19.3 1 2.4 9.5 9.8 11.9 12.1-0.4-16.5 3.5-33.9 4-50.5 0.1-4.3 0.5-8.5 1.2-12.8l0.5 0.6c4.3 4.6 9.3 11.9 13 17.2q8.1 11.4 16.6 22.6c11.4 15.1 14.7 16.7 30.2 27.2q19.6 13.5 39.8 26.2c5.4 3.4 13.9 8.1 18.5 12.1 2.2 1.8 8.6 14.1 10.4 17.2q16 26.5 32.3 52.8c3.2 5.1 9.9 17.4 13.5 21.2l0.5-0.3c0 0.1 11.6-42.2 12.5-47.1-9.4-11-20.2-20.1-28.4-32-1.3-1.9-3.9-4.1-5.4-5.9-4-3.5-7.1-8.3-10.7-12.1-5.6-5.9-16.3-14.3-19.7-22.1-5.1-11.3-7.8-25.7-13-37.6-3.3-7.6-7-15.2-10.1-22.6-0.3 5.5-1.4 13.3-0.5 18.2-5 1.8-9.9 5.1-14.2 6.6-11-6.4-21.6-13.1-32.4-19.7-5.7-3.4-13.5-6.9-18.2-11.4-0.7-0.7-39.9-65.8-40.1-66.5 0.3-4.1 3.2-13.5 4.3-18.2 2.1-8 3.8-17.6 6.2-25.4 12.1-1.8 37.7-2.7 50-0.3 3 0.6 20.4 9.6 24.7 11.4 7-0.7 17-1.6 23.8-1.6 2 0 16.1 13.5 18.8 15.8l65.9 55.6 34.3 29.2c5.3 4.4 17.3 13.8 21.7 18.2l0.3 0.9c3.8 12.2 2.3 30.9 2.5 43.6 0.7 10.4 4.1 20 1.5 30.4-0.2 0.9-0.4 3.6 0.9 3.8 35.4 6.1 75.2 14.9 110.8 17.5 7-10.1 22.5-17.3 19.2-30.3-1.6-6.3-3.3-13-5.4-19.1-2.3 0-4.3-0.1-6.6 0.1-3.5 0.2-10.8 2.6-13.5 0.5-0.1-5.9 15.4-9.4 15.6-15.9-2.6-4.2-14.1-4.6-16.2-10.4 7.4-7 43.9 9.9 32.3-14.1-3.5-0.9-15.2-2.6-18.1-1.8-16.1 4.4-30.3 14.6-47.5 14.5-2.5 0-5.4 0.9-7.5-0.9-0.9-2.9 1.4-5 3.4-7 18.6-4 30.4-17 45.8-27.3 4.6-3.1 8.2-6.6 13.5-8.7l0.6 0.2c3.4 1.5 8.1 5.1 11.1 4.8 2-4.6-11-22.6-8.9-29 0.6-1.6 8.7-4.5 10-6.8 9.1-8.1 18.7-16.7 27.3-25.3-13.8-18.3-28.1-35.7-40-55.4-2.7-4.4-7-9.3-8.8-14.1 1.7-7.2 8-31.4 7.3-37.5l-0.5-0.4c-10.2 5.7-11.9 25.2-13.4 35.6 8.6 14.6 16 33.2 24.4 48.3 5.4 9.7 15.3 15.7 19.2 26.4-0.2 0.9-1.1 4.5-1.6 5.1-6.6 8.6-15 15.8-24.2 21.9-9.4 6.2-30.1 6.2-36.3-5-1.9-3.6 3.4-16.2 6.6-19.4l1.2-0.4c2.5 2.5 1.1 11.1 0.5 14.6 2.9 4.5 3.5 4.9 8.2 7.4 6.9-5.4 25.7-18.1 29.8-23.8-3.8-4.8-12.7-13.7-15.6-18.5-6.4-10.9-10.9-22.8-16.9-34-3.6-7.5-9-14.2-12.3-21.7-0.6-4.1 3.1-10.4 3.8-14.1 2.5-12.5 6-23.6 13.8-33.9 4.4-5.8 11.3-10.3 16.7-15.4-12.4-28.9-27-56.8-40.5-85.2-1-2.1-3.2-5.5-4.3-7.3-5.1-8.6-7.5-9.3 0.1-17.3 1-1.1 2.9-3.7 4-5.1 3.8 5.4 7.2 11.3 10.7 17 17.8 29 34.6 58.7 52.2 87.8-4.4 13.9-8.1 32.4-10.7 47-0.6 3.5-2 7.6-2.4 10.8 3.7-1.8 7.9-4.2 12-4.4l0.9 0.5c1.2 7-15 13.9-19.2 16.6 2.9 6.4 10.5 15.7 15 21.6q10.6 14.2 21.6 28.1c5.2 6.5 11.9 14.7 16.6 21.5-2.8 4.6-16.1 17.2-20.7 21.6-6.7 6.6-12.5 12.8-19 19.8 3.6 8.1 8.4 15.5 12.2 23.3-1.5 6.1-4.9 11.2-8.1 16.6 2.6 5.5 6 11.8 8.3 17.1-2.7 4.4-8 14.6-13.2 16.4-0.5 0.1-2.8 0.4-3.5 0.5l-0.6 0.1h-0.4c-1.4 16 6 23.1 7.6 38 0.3 2.3-1.1 10.6-1.6 13.2-0.4 0.4-12.4 13.6-12.4 13.5q-0.3 0.3-0.5 0.6c-5.1 4.1-10 10.6-14.8 14.8-9.4-1.8-19.2-2.3-28.6-3.8-24.7-4-49.9-7-74.4-11.7-19.8-3.8-27.8-4.7-45.4 7.3-15.7 10.7-18.1 24.8-21.6 42.2 9 4.4 18.3 10.3 27.9 15.1q21.9 10.7 43.9 21.1c2.4 1.1 18.6 8.5 18.9 9.1 6.8 14.3 11.9 30.4 17.2 45.6 4.4 12.7 9 25.9 13.7 38.5q0.1 0.3 0.1 0.5c-8.2-4.1-17.1-12.6-24.7-18.1-19.8-14.2-39.4-28.6-59-43.1-1.6-1.3-9.7-6.8-10.3-7.9-5.5-9.5-9.9-20.8-14.1-30.9-3.3-7.9-8.5-16.2-12-23.8-5.7 5.6-3.5 4.8-5.6 11.6-2.3 7.5-3.4 18.2-6.3 25.1 4.7 7.8 14 21.8 17.8 29.3 8.5 12.8 16.5 27.2 24.5 40.4 10.3 16.9 20.6 33.8 30.2 51.2-11.8 0.6-27.2 0.1-39.5 0.1l-44.7 0.4c-17.7 0-37.5-0.3-55 0.3-2.6-2.7-4.5-5.4-6.9-8.4-2.2-3.2-6.4-6.6-8.5-9.8-5-7.8-10.8-14.3-16.7-21.4-3.9-4.8-7.5-10.4-11.4-15.4q-26.7-34.6-54.9-67.9c-5-6-4.8-11.6-7.4-18.4-8-21.3-16.2-42.5-24.3-63.8-1-2.7-0.1-10.8 0.2-14-3.4-3.9-21.4-21.1-24.9-22.2-2.4 2.2-0.4 6.6-1.3 9.1-5.7 15.5-2.9 33-8.1 48.9-0.5 1.4-0.6 5.7-0.7 7.3 3.1 5.8 8.5 10.1 11.5 15.8 2.8 5.4 2.3 39.4 2.4 48.4 0.1 4.8 0.5 15.7-0.6 19.7-0.8 0.4-0.4 0.2-1.5 0-6.8-7.5-12.2-12.1-18.8-18.9-5.6-5.9-10.7-14.8-16.7-20.2-9.9-8.3-16.8-19.2-25.9-28-6.3-6-10.3-11.4-16.1-17.9-9.1-10.4-31.7-31.1-36-44.3 2.5-13.7 2.9-28.3 5.1-42.3 2.4-16 18.9-30.3 28-43.1 4.3-6.2 10.6-13.2 14.2-19.4 8.2-14.2 19-25.3 28.6-38.4q7.8-10.7 15.3-21.5c2.5-3.7 7.4-11.8 10.1-14.5h1l0.8 0.9q6.3 44.4 10.5 89.1c0.9 9 3.1 21.1 3 30.1-0.1 6.5-3.6 15.9-4.6 23.4 5.4 4.9 10.5 8.7 16.1 13.2 2.5 2.1 5.8 5.4 8.5 7.8 0-4 1.8-8.9 2.5-13 0.8-4.8 1.1-9.3 1.5-14.1-7.2-7.2-16.3-12.5-21.7-18.6-2.8-12-0.7-30.5-0.8-43 0-5.3-1.6-11.5-1.4-16.5 0.3-6.7 1.5-13.3 1.6-20.1 0.3-27.3-1-55.9 0.4-83-6.4 0-29.2 2.6-36 4.4-3.4 0.8-10.5 11.1-14 14.1-10.5 9-21.6 17.4-31.4 27.3-3.3 3.3-6.6 9.8-11.3 11.2-1.7-0.5-1 0-2.1-1.5-0.5-9.4 0.7-18.5 1.4-27.9 0.4-6.2-1.3-21.8-0.3-26.6 2.8-12.8 8.1-27.7 11.8-40.6 5.5-18 10.4-36.1 15.7-54.2 0.7-2.5 4.2-10.3 6.4-11.8 5.3-3.5 12.7-11.6 17.9-14.1 5.5-2.7 15.9-3.4 21.9-5.3 7.4-1.8 14.5-3.6 21.7-5.4-1 6.1-2.2 10.6-3.9 16.6-10.2 3.7-22.8 3.7-32.5 8.1-2.7 1.3-14.4 12.2-15.9 14.9-3.6 6.6-6.1 18-8.1 25.7 13-1.8 29.3-1.7 42-4.2 7.5-6.7 13.8-11.7 20.2-20 2.7-3.5 9.2-7.6 12-11.3 5.6-7.4 10.7-13.3 17.5-19.6 9 0.1 17.3-1.1 26.1-1.3 16.9-0.3 33.9 0.3 50.8 0.2 3-0.1 9.6 0.6 11.1-2.4l-0.6-0.7c-4.5-2.5-15.7-4.9-21.7-7.7-8-2.7-19.8-11.6-27.5-13.5-30.5-7.6-63.1-9.2-94.1-13.2 0.9-6.5 2.1-43 4.7-45.8 3.1-3.3 9-5.2 12.9-7.4 6.1-3.5 11.9-8.1 18.3-10.8 5.7-2.5 28.3-2.4 36-2.8l-0.6-0.2c4.4-0.4 26.6 0.6 28.4-1.4-0.7-2.1-25.5-17.6-29.2-19.7zm214.4 455.9c0.2-6.2-1.7-10.9-1.6-16.3 0.3-12.4-0.3-24-1.6-36.3-0.4-3.5 0.5-11 0.5-15.1-7.5-6.6-15.6-12-22.9-18.4-19.3-16.8-38.4-33.8-58.2-50-12.3-10-24.5-22.4-37.5-31.6-2.8-0.8-8.3-6-11.7-8.3 0 9.2 0.4 41.3-1 48.3 0.1 4.5 29.7 66.9 34.3 73 2 2.7 66.9 47.5 70.6 49.1 7.7 3.3 20.6 4.4 29.1 5.6zm-267-403.9c-1 7.7-1.5 15.8-2.6 23.4 20.6 1.5 40.6 3.6 60.9 7.7 5.3 1 16.7 2.2 21.4 4.4 17 7.9 29.7 15.5 48.2 20.3 12.5 3.4 28.9 7.2 40.7 11.5 4.6-3.5 21.5-14.2 23.3-18.1-2.4-3.4-25-19.7-30.4-24.1l-35.4-28.7c-4-3.2-11.9-9.9-15.9-12.4-11 0-25.8-0.1-36.8 0.2l-29.1 0.9c-5.9 0.2-15.7-0.5-20.8 1.5-7.7 3.1-16.3 9-23.5 13.4zm44.9 89.6c-2.6 3.6-5.3 6.6-8.4 9.8-13.1 13.2-26 27.1-39.4 39.9-11.2 2.6-43.9 5.3-55.5 5.2q-4.2 15.6-9.1 31.1c-5.8 19-7.5 21.5-6.1 41.8 4-3.1 7.2-6.3 10.8-9.8 3.7-3.7 6.1-7.2 9.6-10.7 14.6-14.9 20.6-13 39.6-15.1 4.3-0.4 11.8-1 15.6-2.7 12.7-14.4 23.6-31.6 36.5-46.1 4.3-4.9 8.3-11.6 13.1-15.9 17.3-3.2 35.9-4 53.3-6.8 9.5-1.5 29.8-1.8 37.8-5.3 3-6.2 5.4-11.3 8.7-17.3-6.8-0.1-13.3-0.2-20.1 0.1q-31.5 1-62.9 1.6c-7.8 0.2-15.8-0.2-23.5 0.2zm-3.3 286.2c11 11.5 22.4 21.2 34.7 31.2 3.8 3 7.2 8.6 10.8 12 9.2 9.4 18.8 18.3 28.3 27.4 6.4 6.1 12.5 7.9 19 13.2 2.1 1.6 6 7.8 6.6 10.4 0.2 2.5-2.9 6.5-4.3 8.8 6 6.4 38.8 37.6 44.7 40.7 3.9 2 6.4 7.3 9.4 10.4 9.1 9.2 19 17.7 28 27 2.9 0.8 4.3-1.1 6.5-3-10.4-16.5-20.5-33.2-30.4-50-2-3.6-5.4-6.6-7.4-10.2-9.2-16.4-18.8-33.2-29.2-48.9-2.9-4.2-15.8-28.6-17.9-29.9-24.8-15.5-48.8-32.2-73.5-48-7.5-4.8-16.5-20.7-21.9-23.1 0 2.5 0.2 9.7-0.2 11.7-1.4 7.8-2.8 12.2-3.2 20.3zm-3.9 55.3c4.9 6.7 13.7 13 19.9 18.7q28.3 26.1 57.2 51.6c3.9 3.5 9 7.1 12.6 10.3l122.9 112c4.1 0.1 11.6 0.6 15.2-0.3l0.7-0.7c-0.4-0.7-0.6-1.4-1-2-3.2-5.5-9-14.5-12.7-19.6-4-5.6-17.4-34.6-21.1-37.4-5-1.2-8.8 6.1-14.6 5.2-3.7-2-6-6.4-9.2-8.8-11.2-8.6-20.8-18.5-30.5-28.7-1.1-1.2-3.5-2.8-5-3.9-13.6-9.7-22.3-23.9-36.6-33.1-1.2-0.8-4.4-5.8-6.9-7.7-7.6-0.6-13.7-0.9-19-7.3-6.2-7.7-3.3-14.7 1.6-21.4-5.9-8.4-10.4-9.8-17-16.1l-36.2-34c-2.9-2.7-6.2-6.9-9.2-9.9-3.8-3.9-5-4.1-8.7-7.1 2.7 5.9-1.2 12.2-0.5 17.4 1.1 8.1-2 15.8-1.9 22.8zm-136.4-14.7c2.1 2.7 5.9 6.3 7.6 8.8 3.8 5.4 12 10.6 15.5 15.3 7.6 10.3 16.3 19.2 24.7 28.7-0.4-2.1-0.7-4.2-0.9-6.3-0.3-2 1.4-13.9 0.6-14.9-5.6-6.9-10.2-4.3-11-15.1-0.8-11 9.6-12.6 12-18 1.3-8.9 0.1-27.6 0.1-37.3l0.1-25.2c0-4.3 1-13.8-1.6-16.9l-0.4-15.8c-2.9 6-9.3 10.9-12.9 16.5-7.5 11.6-22.4 27.7-28 39.2-1.3 2.6-5.3 36-5.8 41zm77-135.9c-4 2.3-15.8 18.1-18.3 22.5 0.2 37.7-0.1 76 0.4 113.7 7.5 3.9 16.6 14.8 10.1 23.8-0.7 1-9.7 7.7-9.6 7.4-0.7 3.1-0.9 31.3-0.8 33.9 6.4 6.9 12.3 13 18.6 20.2 2.5 2.8 4.6 5.1 7.2 7.7q0.2-12.4 0.6-24.8l-14.2-17.7c1.4-13.2 2.5-27.6 4.7-40.7 2.3-13.7 4.2-27.2 5.7-41 3.3-19.5 5.7-33 1.7-52.7-2.4-11.9-2.9-26.5-4.6-38.6-0.3-4.3-1.3-9.7-1.5-13.7zm114.2-324.7c1.4 1.1 8.9 5.5 11.1 6.8 6.8 4.3 13.8 9 20.7 13 6.5-6.6 12.8-20.1 19.4-27.2 1.3-1.3 2.8-2.4 3-4.2-3.2-1-30.9-0.7-35.6-0.5-4.5 8-9.5 10.6-18.6 9.5-3.3-1.2-6-3.7-9.5-5.5-2.6-3.5-3.5-7.4-2.8-11.7 0.9-4.7 3.6-8.7 7.6-11.3 9.6-6.2 17.7-0.1 23.3 7.9 22.4 0.1 41.9 0.4 64.4-0.2-5.5 7.5-11.7 14.3-16.9 22.1-7.1 10.6-15.3 20.8-22.4 31.3 5.6 4.7 14.3 12.2 20.2 16.4-0.4-5.6-6.9-17.7-2.9-21.3 9.9-9 24.5-24.2 36.1-30.2 6.6 2 18.6 9.9 25.3 13.4 18.3 9.7 38.7 22.8 57.4 31.2 7-3 8.4-3.2 16.1-2.8l11.1-0.5c-9-9-60.3-58.6-62.2-63.6-3.4-3.4-7.3-3-12-3-35.6-0.3-71.8 0.3-107.4-0.4-8.4-0.1-27-5.7-36.3-7.7-7.9 2.7-20.1 9.8-25.5 16 3.6 2.9 20.6 13.4 24.6 14.4 2.8 2.7 8.3 5.9 11.8 8.1zm170.5 554.2c1.3 3.1 6.3 15.2 8.3 16.9 12.2 9.9 35.9 28.9 48.6 36.4l0.4-0.1c0.2-5.1-8.1-27.2-10.5-32.7-6-3.4-14.1-7.2-20.5-9.9-7.4-3.3-18.7-10-26.3-10.6zm-144.9-386.1c-6.5 1-13.1 1.7-19.5 2.4-2 2.1-4 4.3-5.7 6.6-6 8.2-14.5 14.7-19.8 23.3-1 1.7-1.5 9.1-1.8 11.5h6.1q8.7 0.1 17.4 0.3c6.7-6.8 16.1-15.5 22-22.5 1.2-9.1 5.5-15 6.6-21.8zm72-156.6c-4.7 3.9-15.6 17-20.1 18.7-1 2.3 7.7 32.4 11.6 35.6 7.1 5.9 16.5 14.2 24.3 18.9 4.8-3.2 13.1-9.7 17.3-12.2 8.6-6.3 25.1-19 33.5-23.7-4.3-3.3-62.5-36.5-66.6-37.3zm-25.8-95.5c-2.4 1.5-6.1 3.5-7.2 6 0.5 0.9 0.5 1.3 1.9 1.5 10.1 1.6 25.9 0.7 35.5 3.2 4.4 1.1 19.4 11.4 23.8 14.7 9 6.6 25.6 15.6 33.1 22.9 13.1 12.6 26.1 26.4 39.2 39.1 2.4 2.4 10.6 11.1 12.4 12.4 5.8 5.7 15.8 16.3 18.8 23.6 5.3 2.7 12.7 4.5 18.5 6.2 1.4-3.3 2.3-5.4 3.1-8.9-4.9-15-18.3-31.5-27.8-44.2-1.3-1.7-4.3-3.3-5.1-4.5-8.9-14.1-18.2-26.7-29.6-38.9-3.8-4.1-6.9-13.5-11.6-17.6-6.9-5.5-18.9-11-26.6-15.6-6.2-3.6-11.6-2.6-18.4-2.3q-30 1.6-60 2.4zm59.5 750.7l1-0.9c-0.4-1.7-0.3-1.1-1.5-2.4-2.7-2.9-8-5.9-10.5-8.7-6.2-7.2-12.6-12.9-20.3-18.6-2.5-1.9-5.5-5.9-8.1-8.2-11.2-9.9-22.6-19.5-33.1-30.1-2.6-2.6-7.2-4.7-10-7.3-7-7.7-13.4-14.2-21.7-20.3-3.7-2.8-7.5-8.4-11.4-11.3-9.2-7.6-17.9-13.8-25.7-23.1-2.4-2.9-9.4-6.7-12.5-9.7-6-5.6-8.2-11.6-16.5-13.8-0.6 7.5 10.1 30.3 13.4 38.3 1.1 2.7 10.3 13.5 12.9 16.7l18.8 23.7 39.3 49.7c5.6 7.1 12.9 17.1 18.5 23.5q1.6 1.9 3.5 3.6c19 0.2 38.3 0.7 57.3-0.3 2.2-0.2 4.4-0.7 6.6-0.8zm-180-381.4c5.4 12.6 28.7 48.5 37.5 59.7 2 2.6 30.7 19.5 35.4 22.1-0.5-4.7-0.7-26.7-0.2-31.6 0.1-15.5-1.2-38.2 0.1-53-0.1-1.4 0.7-10 0.8-12-13.7-1.3-22-9.7-35.1-12.6-4.8-1-14.1 0.1-19.2-0.1-3.1-0.1-9.7-1-11.6 1.2-5.1 5.9-4.7 18.7-7.7 26.3z"/><path  d="m459.4 453.8c16.1-2 16.6 7 24.7 16.2 7.4 8.5 18.6 14.2 11.8 28.2-2.6 5.4-6.6 7.4-11.8 9-3.1 0.1-7.7 0.6-10.5-0.8-6-3.2-9.4-9-13.6-14.1-7.3-9.2-19.5-17.7-11.4-30.6 3-4.6 5.5-6.5 10.8-7.9z"/><path class="a" d="m461.8 464.1c3.4-0.2 7.5 3.2 9.1 6 4.5 8.1 22.1 17.8 11.1 26.1-5.3 0.3-13.9-11.7-17.3-15.9-5.4-6.8-10.1-9.6-2.9-16.2z"/><path class="a" d="m508.6 692c3.3-0.8 6.6 1.1 7.5 4.4 0.9 3.3-1 6.7-4.2 7.6-2.2 0.6-4.5 0-6.1-1.5-1.6-1.6-2.2-3.9-1.6-6.1 0.5-2.1 2.2-3.8 4.4-4.4z"/><path class="a" d="m339.8 654.3c2.1-0.9 4.4-0.6 6.2 0.7 1.7 1.4 2.6 3.5 2.3 5.7-0.3 2.2-1.8 4.1-3.8 4.9-3.1 1.2-6.6-0.3-7.9-3.4-1.2-3.1 0.2-6.6 3.2-7.9z"/><path class="a" d="m481.6 161.2c1.9-0.8 4-0.5 5.6 0.8 1.6 1.4 2.3 3.4 1.9 5.4-0.4 2-1.9 3.7-3.8 4.3-2.9 0.8-5.9-0.7-6.9-3.5-1-2.8 0.4-5.9 3.2-7z"/><path  d="m823.5 660.1q0.2 0.1 0.4 0.3c1.6 1.5 20.1 49.4 20.9 53.7 1.1 5.6 0.8 11.3 1 16.9 0.2 6.3 0.7 12.5 0.7 18.8q-10.2 13.8-19.3 28.4c-5.5 8.8-12 20.6-18.8 28-3.1-1.5-8.7-5.9-11.8-8.2-5.6-4-15.5-9.6-18.4-15.6-4.5-12.7-20.1-40.4-27.6-52.4-1.3-2.1-17.8-17.9-21.4-21.6 6.4-13.8 8.9-11.5 23.1-11.5 12.4 0 24.8 0.2 37.3 0.1 7.3-0.1 10.6-7.9 14.9-12.7 6.1-7.8 12-16.6 18.6-23.9zm-22 51.8c-13.6 0.5-32.2-0.6-44.9 0.5 9.8 14.6 23.3 37.4 30.7 53.4 5.6 11.5 7.3 12.3 18 18.9 8.1-13.4 18.5-26.4 25.1-40.4 0.5-1 0.7-25.6 0.1-27.6-2.4-7.5-7.3-20-11-27.1-6.1 6.9-12 15.7-18 22.3z"/><path  d="m672.6 355.1q2.5-0.2 5-0.2c3.9 0 71.2 8.1 71.5 8.2 0.2 0.2 0.3 0.4 0.5 0.6 0.9 6.9-8.3 27.6-13.3 32.5-1.7 0.6-13.6-0.1-16-0.2 0.2 13.2-1.5 17.5 7.3 27-1 4.2-6.6 19-12.1 18-1.9-3.2 1.8-10.4 3.2-13.6-12.1-1.7-21.1-1.5-33.8-4.8-10.8-2.8-21.6-8-31.7-10.7l-0.7-0.2c-4.2-0.1-7.3 1.4-11-0.7-1-1.6-0.8-0.8-0.9-2.6 0.6-1.1 1.7-2 2.9-2.4 20.5-7.4 38.1-21.7 59.9-25.6 2-0.3 5.2-0.8 7-1.4l0.3-0.9c-1.2-2.2-30.8-10.1-34.9-9.8-13.8 0.7-29 9.7-41.8 14.9-2.9 1.2-8.7 5.4-11.1 2.8 0.3-2.6 8-9 10-9.9 9.2-3.8 31.3-19.6 39.7-21z"/><path class="a" d="m710.2 398.5c1.9 1.8 2.6 16.4 2.7 19.7-11.2-0.5-19.1-1.6-29.8-4.7-4.1-1.4-6-2.1-9.7-4.2 11-3.8 25.5-7.5 36.8-10.8z"/></svg>